<svg id="Layer_1" data-name="Layer 1" xmlns="http://www.w3.org/2000/svg" viewBox="0 0 329.93 77.04"><defs><style>.cls-1{font-size:60px;font-family:Cooper-Black, "Cooper*";font-weight:800;}.cls-1,.cls-3{fill:#603913;}.cls-2{fill:none;stroke:#603913;stroke-miterlimit:10;}</style></defs><text class="cls-1" transform="translate(0 52.5)">Nano Nest</text><circle class="cls-2" cx="325.39" cy="38.52" r="4.04"/><path class="cls-3" d="M457.69,421.48v1.65h-.87V419h1.81c.91,0,1.39.49,1.39,1.13a1,1,0,0,1-.6,1c.2.07.51.29.51,1v.2a3.68,3.68,0,0,0,.06.79h-.84a2.69,2.69,0,0,1-.09-.93v-.06c0-.45-.11-.66-.78-.66Zm0-.72h.75c.49,0,.68-.18.68-.53s-.22-.52-.66-.52h-.77Z" transform="translate(-132.92 -382.43)"/></svg>